<svg width="37" height="51" viewBox="0 0 37 51" fill="none" xmlns="http://www.w3.org/2000/svg">
<path d="M1.40456 0.716569C0.825646 0.771051 0.383495 1.25864 0.386305 1.84028V44.5493C0.388265 44.864 0.521925 45.1631 0.755136 45.3747L5.8121 49.8705C6.03474 50.0727 6.32909 50.177 6.62933 50.1605C6.92956 50.1441 7.21099 50.0081 7.4101 49.7827L10.5007 46.2527L13.5913 49.7827H13.5909C13.8045 50.0245 14.1114 50.1629 14.434 50.1629C14.7566 50.1629 15.0635 50.0245 15.2767 49.7827L18.3673 46.2527L21.4579 49.7827C21.6711 50.0245 21.978 50.1629 22.3006 50.1629C22.6231 50.1629 22.93 50.0245 23.1437 49.7827L26.2342 46.2527L29.3248 49.7827H29.3244C29.5236 50.0081 29.805 50.1441 30.1052 50.1605C30.4055 50.177 30.6998 50.0727 30.9224 49.8705L35.9794 45.3747C36.2126 45.1631 36.3463 44.864 36.3482 44.5493V1.84028C36.3482 1.21982 35.845 0.716569 35.2245 0.716569H1.51008C1.4748 0.715001 1.43992 0.715001 1.40464 0.716569H1.40456ZM2.63373 2.9644H34.1005V44.0398L30.2728 47.4467L27.0767 43.7941C26.8631 43.5519 26.5562 43.4135 26.2336 43.4135C25.9114 43.4135 25.6041 43.5519 25.3909 43.7941L22.3003 47.3241L19.2097 43.7941C18.9965 43.5519 18.6896 43.4135 18.367 43.4135C18.0445 43.4135 17.7376 43.5519 17.5243 43.7941L14.4337 47.3241L11.3431 43.7941C11.1299 43.5519 10.8226 43.4135 10.5004 43.4135C10.1779 43.4135 9.87097 43.5519 9.65736 43.7941L6.46131 47.4467L2.63351 44.0398L2.63373 2.9644ZM18.3671 5.21223C11.8635 5.21223 6.56708 10.5091 6.56708 17.0133C6.56708 23.5175 11.8636 28.8143 18.3671 28.8143C24.8707 28.8143 30.1672 23.5175 30.1672 17.0133C30.1672 10.5091 24.8707 5.21223 18.3671 5.21223ZM18.3671 7.46006C23.6562 7.46006 27.9195 11.7237 27.9195 17.0132C27.9195 22.3026 23.6562 26.5663 18.3671 26.5663C13.0781 26.5663 8.81481 22.3026 8.81481 17.0132C8.81481 11.7237 13.0781 7.46006 18.3671 7.46006ZM18.2441 9.69033C17.6651 9.75383 17.2308 10.2493 17.2434 10.8317V11.4463C15.6042 11.7218 14.4339 13.1764 14.4339 14.7654C14.4339 16.6809 16.2287 18.137 18.3671 18.137C19.6198 18.137 20.0529 18.6857 20.0529 19.2607C20.0529 19.9862 19.7699 20.3844 18.9292 20.3844H15.5576V20.3848C15.2569 20.3809 14.9669 20.4973 14.7525 20.7086C14.5385 20.9198 14.4178 21.2079 14.4178 21.509C14.4178 21.8096 14.5385 22.0981 14.7525 22.3093C14.9669 22.5206 15.2569 22.637 15.5576 22.6327H17.2434V23.1948C17.2391 23.4958 17.3555 23.7854 17.5668 23.9998C17.778 24.2142 18.0661 24.3346 18.3671 24.3346C18.6682 24.3346 18.9562 24.2142 19.1675 23.9998C19.3788 23.7854 19.4952 23.4958 19.4909 23.1948V22.5802C21.1288 22.3039 22.3004 20.8497 22.3004 19.2611C22.3004 17.3456 20.5056 15.8892 18.3672 15.8895C17.1145 15.8895 16.6813 15.3407 16.6813 14.7658C16.6813 14.0402 16.9643 13.642 17.8051 13.642H21.1767V13.6417C21.4777 13.646 21.7674 13.5292 21.9818 13.3179C22.1962 13.1066 22.3165 12.8185 22.3165 12.5175C22.3165 12.2169 22.1962 11.9284 21.9818 11.7171C21.7674 11.5059 21.4777 11.3895 21.1767 11.3938H19.4909V10.8317C19.4979 10.5079 19.3651 10.1971 19.1264 9.97842C18.8873 9.75971 18.5659 9.65466 18.2441 9.69033H18.2441ZM10.9568 31.0619C10.6589 31.076 10.3787 31.2077 10.1776 31.4284C9.97694 31.649 9.87189 31.9406 9.88601 32.2385C9.91501 32.8594 10.4418 33.3392 11.0623 33.3098H25.6719C25.9725 33.3141 26.2626 33.1973 26.4766 32.9864C26.6906 32.7751 26.8113 32.4866 26.8113 32.186C26.8113 31.8854 26.6906 31.5969 26.4766 31.3856C26.2626 31.1744 25.9725 31.058 25.6719 31.0619H11.0623C11.0274 31.0603 10.9921 31.0603 10.9569 31.0619H10.9568ZM10.9568 36.6814V36.6817C10.6589 36.6955 10.3787 36.8275 10.1776 37.0482C9.97694 37.2689 9.87189 37.5601 9.88601 37.8584C9.91501 38.4789 10.4418 38.9586 11.0623 38.9296H25.6719C25.9725 38.9335 26.2626 38.8171 26.4766 38.6059C26.6906 38.3946 26.8113 38.1065 26.8113 37.8055C26.8113 37.5049 26.6906 37.2164 26.4766 37.0055C26.2626 36.7942 25.9725 36.6774 25.6719 36.6817H11.0623C11.0274 36.6802 10.9921 36.6802 10.9569 36.6817L10.9568 36.6814Z" fill="#60C1B6"/>
</svg>
